<svg xmlns="http://www.w3.org/2000/svg" viewBox="0 0 193.5 69.9"><path d="M144.4 31.2c-5.2 0-9.7 1.9-13.4 5.7-3.8 3.8-5.6 8.4-5.6 13.7 0 5.3 1.8 9.9 5.6 13.6 3.7 3.8 8.2 5.7 13.4 5.7 5.2 0 9.8-1.9 13.6-5.7 3.7-3.7 5.6-8.3 5.6-13.6 0-5.3-1.9-9.9-5.6-13.7-3.8-3.8-8.3-5.7-13.6-5.7zm7.2 26.5c-1.9 2-4.3 3-7.1 3-2.7 0-5.1-1-7.1-3-1.9-2-3-4.4-3-7.2 0-2.9 1.1-5.3 3-7.2 1.9-2 4.3-3 7.1-2.9 2.8-.1 5.2.9 7.2 2.9 1.9 1.9 2.8 4.3 2.9 7.2-.1 2.8-1.1 5.2-3 7.2zm-128-26.9c2.8 0 5.4.8 7.9 2.4 2.2 1.5 4 3.6 5.2 6.1h9.6c-1.4-5.1-4.1-9.4-8.3-12.6-4.2-3.4-9.1-5-14.4-5-6.6 0-12 2.3-16.6 7C2.3 33.4 0 39 0 45.6c0 6.5 2.3 12.3 7 17 4.6 4.6 10.1 6.9 16.7 6.9 5.3 0 10.2-1.6 14.4-4.9 4.1-3.4 6.9-7.5 8.3-12.6h-9.6c-1.2 2.5-3 4.5-5.2 6.1-2.5 1.5-5 2.3-7.9 2.3-4.1 0-7.5-1.5-10.3-4.3-2.9-2.9-4.3-6.3-4.2-10.4-.1-4.1 1.3-7.5 4.2-10.4 2.7-3 6.2-4.5 10.2-4.5zm69 2.7c-3.2-1.7-6.7-2.5-10.7-2.4-6.2-.1-10.5 1.6-13 4.9-1.6 2-2.4 4.7-2.6 8h9.2c.2-1.6.7-2.7 1.3-3.4 1-1.2 2.6-1.9 4.9-1.8 1.9-.1 3.4.3 4.5.9 1.1.5 1.5 1.6 1.6 3.1 0 1.2-.7 2.2-2.1 2.8l-7.1 1.1c-3.3.4-5.9 1.2-7.9 2.4-3.4 2-5.1 5.3-5 10-.1 3.3 1 5.9 3.1 7.9 1.9 1.6 4.4 2.5 7.5 2.6 5-.1 9-1.3 11.8-3.8v3.8h9.2v-27c-.1-4.4-1.7-7.5-4.7-9.1zm-5.1 21.1c0 3.2-.9 5.4-2.6 6.6-1.8 1.2-3.6 1.9-5.7 1.9-1.3 0-2.4-.4-3.3-1.1-.9-.8-1.3-1.9-1.3-3.6 0-1.9.7-3.2 2.2-4.2.9-.5 2.4-1 4.3-1.2l4.6-1.2 1.8-1v3.8zM51 21.7h9.2v47.9H51zm71.1 9.8l-3.5 1c-2.5 1-4.7 2.7-6.5 5.2V33l-8.7-.1v36.8h9.1V52.1c0-3 .4-5.1 1.2-6.5.6-1.4 1.8-2.6 3.2-3.5 1.6-1.1 3.3-1.6 5-1.6l2.8.2-.1-9.4-2.5.2zm59.4-26.9l-22.1 22.2 5.8 5.8 22.1-22.2zM141.4 0h8.2v23.8h-8.2zm27.8 41.8h24.3V50h-24.3z" fill="#FFF"/></svg>